<svg width="645" height="642" viewBox="0 0 645 642" fill="none" xmlns="http://www.w3.org/2000/svg">
<g filter="url(#filter0_d_1073_25)">
<line x1="20" y1="21" x2="625" y2="21" stroke="url(#paint0_linear_1073_25)" stroke-width="2"/>
</g>
<g filter="url(#filter1_d_1073_25)">
<line x1="624" y1="622" x2="624" y2="22" stroke="url(#paint1_linear_1073_25)" stroke-width="2"/>
</g>
<g filter="url(#filter2_d_1073_25)">
<line x1="20" y1="621" x2="625" y2="621" stroke="url(#paint2_linear_1073_25)" stroke-width="2"/>
</g>
<g filter="url(#filter3_d_1073_25)">
<line x1="21" y1="22" x2="21" y2="622" stroke="url(#paint3_linear_1073_25)" stroke-width="2"/>
</g>
<rect x="104" y="552" width="8" height="22" fill="white" stroke="url(#paint4_linear_1073_25)" stroke-width="2"/>
<rect x="119" y="552" width="8" height="22" fill="white" stroke="url(#paint5_linear_1073_25)" stroke-width="2"/>
<rect x="134" y="552" width="8" height="22" fill="white" stroke="url(#paint6_linear_1073_25)" stroke-width="2"/>
<rect x="149" y="552" width="8" height="22" fill="white" stroke="url(#paint7_linear_1073_25)" stroke-width="2"/>
<rect x="164" y="552" width="8" height="22" fill="white" stroke="url(#paint8_linear_1073_25)" stroke-width="2"/>
<rect x="179" y="552" width="8" height="22" fill="white" stroke="url(#paint9_linear_1073_25)" stroke-width="2"/>
<rect x="194" y="552" width="8" height="22" fill="white" stroke="url(#paint10_linear_1073_25)" stroke-width="2"/>
<rect x="209" y="552" width="8" height="22" fill="white" stroke="url(#paint11_linear_1073_25)" stroke-width="2"/>
<rect x="224" y="552" width="8" height="22" fill="white" stroke="url(#paint12_linear_1073_25)" stroke-width="2"/>
<rect x="239" y="552" width="8" height="22" fill="white" stroke="url(#paint13_linear_1073_25)" stroke-width="2"/>
<rect x="254" y="552" width="8" height="22" fill="white" stroke="url(#paint14_linear_1073_25)" stroke-width="2"/>
<rect x="269" y="552" width="8" height="22" fill="white" stroke="url(#paint15_linear_1073_25)" stroke-width="2"/>
<rect x="284" y="552" width="8" height="22" fill="white" stroke="url(#paint16_linear_1073_25)" stroke-width="2"/>
<rect x="299" y="552" width="8" height="22" fill="white" stroke="url(#paint17_linear_1073_25)" stroke-width="2"/>
<rect x="314" y="552" width="8" height="22" fill="white" stroke="url(#paint18_linear_1073_25)" stroke-width="2"/>
<rect x="329" y="552" width="8" height="22" fill="white" stroke="url(#paint19_linear_1073_25)" stroke-width="2"/>
<rect x="344" y="552" width="8" height="22" fill="white" stroke="url(#paint20_linear_1073_25)" stroke-width="2"/>
<rect x="359" y="552" width="8" height="22" fill="white" stroke="url(#paint21_linear_1073_25)" stroke-width="2"/>
<rect x="374" y="552" width="8" height="22" fill="white" stroke="url(#paint22_linear_1073_25)" stroke-width="2"/>
<rect x="389" y="552" width="8" height="22" fill="white" stroke="url(#paint23_linear_1073_25)" stroke-width="2"/>
<rect x="404" y="552" width="8" height="22" fill="white" stroke="url(#paint24_linear_1073_25)" stroke-width="2"/>
<rect x="419" y="552" width="8" height="22" fill="white" stroke="url(#paint25_linear_1073_25)" stroke-width="2"/>
<rect x="434" y="552" width="8" height="22" fill="white" stroke="url(#paint26_linear_1073_25)" stroke-width="2"/>
<rect x="449" y="552" width="8" height="22" fill="white" stroke="url(#paint27_linear_1073_25)" stroke-width="2"/>
<rect x="464" y="552" width="8" height="22" stroke="url(#paint28_linear_1073_25)" stroke-width="2"/>
<rect x="479" y="552" width="8" height="22" stroke="url(#paint29_linear_1073_25)" stroke-width="2"/>
<rect x="494" y="552" width="8" height="22" stroke="url(#paint30_linear_1073_25)" stroke-width="2"/>
<rect x="509" y="552" width="8" height="22" stroke="url(#paint31_linear_1073_25)" stroke-width="2"/>
<rect x="524" y="552" width="8" height="22" stroke="url(#paint32_linear_1073_25)" stroke-width="2"/>
<rect x="539" y="552" width="8" height="22" stroke="url(#paint33_linear_1073_25)" stroke-width="2"/>
<rect x="554" y="552" width="8" height="22" stroke="url(#paint34_linear_1073_25)" stroke-width="2"/>
<g filter="url(#filter4_d_1073_25)">
<line x1="560.7" y1="34.8" x2="609.1" y2="34.8" stroke="url(#paint35_linear_1073_25)" stroke-width="2" shape-rendering="crispEdges"/>
</g>
<g filter="url(#filter5_d_1073_25)">
<line x1="608.1" y1="84.2001" x2="608.1" y2="35.8001" stroke="url(#paint36_linear_1073_25)" stroke-width="2" shape-rendering="crispEdges"/>
</g>
<g filter="url(#filter6_d_1073_25)">
<line x1="91.1" y1="607.7" x2="44.7" y2="607.7" stroke="url(#paint37_linear_1073_25)" stroke-width="2" stroke-linecap="square" shape-rendering="crispEdges"/>
</g>
<g filter="url(#filter7_d_1073_25)">
<line x1="44.7" y1="558.3" x2="44.7" y2="606.7" stroke="url(#paint38_linear_1073_25)" stroke-width="2" shape-rendering="crispEdges"/>
</g>
<path d="M278.172 78.0001V51.6329H284.57V54.5684C284.875 53.5489 285.414 52.752 286.188 52.1778C286.961 51.6036 287.934 51.3165 289.105 51.3165V56.5723C288.59 56.5723 287.975 56.6309 287.26 56.7481C286.545 56.8536 285.918 57.0059 285.379 57.2051C284.84 57.3926 284.57 57.6036 284.57 57.838V78.0001H278.172ZM298.035 78.2813C296.16 78.2813 294.666 77.9297 293.553 77.2266C292.439 76.5235 291.643 75.5098 291.162 74.1856C290.682 72.8614 290.441 71.2676 290.441 69.4044V58.8047C290.441 56.3555 291.145 54.504 292.551 53.2501C293.957 51.9844 295.891 51.3516 298.352 51.3516C303.414 51.3516 305.945 53.836 305.945 58.8047V60.7208C305.945 63.0411 305.922 64.5997 305.875 65.3965H296.734V70.4942C296.734 70.963 296.764 71.4258 296.822 71.8829C296.881 72.3282 297.01 72.6973 297.209 72.9903C297.42 73.2833 297.754 73.4297 298.211 73.4297C298.867 73.4297 299.277 73.1485 299.441 72.586C299.605 72.0118 299.688 71.2676 299.688 70.3536V67.8223H305.945V69.3165C305.945 71.2852 305.699 72.9376 305.207 74.2735C304.727 75.5977 303.906 76.5997 302.746 77.2794C301.598 77.9473 300.027 78.2813 298.035 78.2813ZM296.699 62.2676H299.688V58.7169C299.688 57.7676 299.57 57.088 299.336 56.6778C299.102 56.2559 298.75 56.045 298.281 56.045C297.777 56.045 297.385 56.2442 297.104 56.6426C296.834 57.0411 296.699 57.7325 296.699 58.7169V62.2676ZM308.23 78.0001V47.0626H314.629V78.0001H308.23ZM321.959 78.2813C320.494 78.2813 319.375 77.9415 318.602 77.2618C317.84 76.5821 317.318 75.6505 317.037 74.4669C316.756 73.2833 316.615 71.9415 316.615 70.4415C316.615 68.836 316.773 67.5235 317.09 66.504C317.406 65.4727 317.945 64.629 318.707 63.9727C319.48 63.3165 320.541 62.7598 321.889 62.3028L325.791 60.9669V58.2598C325.791 56.8419 325.328 56.1329 324.402 56.1329C323.559 56.1329 323.137 56.7071 323.137 57.8555V59.4376H317.02C317.008 59.3438 317.002 59.2266 317.002 59.086C317.002 58.9337 317.002 58.7637 317.002 58.5762C317.002 55.9512 317.617 54.0938 318.848 53.004C320.09 51.9024 322.053 51.3516 324.736 51.3516C326.143 51.3516 327.402 51.6036 328.516 52.1075C329.629 52.5997 330.508 53.3321 331.152 54.3047C331.809 55.2774 332.137 56.4786 332.137 57.9083V78.0001H325.879V74.8712C325.574 75.9727 325.07 76.8165 324.367 77.4024C323.664 77.9883 322.861 78.2813 321.959 78.2813ZM324.438 73.3946C324.953 73.3946 325.305 73.1778 325.492 72.7442C325.68 72.3106 325.773 71.8419 325.773 71.338V63.9903C324.906 64.3419 324.232 64.7872 323.752 65.3262C323.271 65.8536 323.031 66.6329 323.031 67.6641V71.0567C323.031 72.6153 323.5 73.3946 324.438 73.3946ZM339.977 78.2813C338.277 78.2813 337.129 77.9239 336.531 77.209C335.945 76.4825 335.652 75.3751 335.652 73.8868V57.4512H333.877V52.6524H335.652V47.0626H341.77V52.6524H343.545V57.4512H341.77V72.4102C341.77 72.8438 341.84 73.1485 341.98 73.3243C342.121 73.5001 342.391 73.588 342.789 73.588C343.07 73.588 343.322 73.5645 343.545 73.5176V77.8067C343.404 77.8536 342.965 77.9415 342.227 78.0704C341.488 78.211 340.738 78.2813 339.977 78.2813ZM345.531 50.0157V44.7774H351.824V50.0157H345.531ZM345.531 78.0001V51.6329H351.824V78.0001H345.531ZM357.678 78.0001L353.441 51.6329H359.752L361.264 69.2462L362.969 51.6329H369.262L364.955 78.0001H357.678ZM370.879 50.0157V44.7774H377.172V50.0157H370.879ZM370.879 78.0001V51.6329H377.172V78.0001H370.879ZM385.082 78.2813C383.383 78.2813 382.234 77.9239 381.637 77.209C381.051 76.4825 380.758 75.3751 380.758 73.8868V57.4512H378.982V52.6524H380.758V47.0626H386.875V52.6524H388.65V57.4512H386.875V72.4102C386.875 72.8438 386.945 73.1485 387.086 73.3243C387.227 73.5001 387.496 73.588 387.895 73.588C388.176 73.588 388.428 73.5645 388.65 73.5176V77.8067C388.51 77.8536 388.07 77.9415 387.332 78.0704C386.594 78.211 385.844 78.2813 385.082 78.2813ZM390.162 82.3946V78.4044H393.186C393.643 78.4044 393.871 78.2462 393.871 77.9297C393.871 77.7657 393.854 77.5958 393.818 77.42L389.688 51.6329H395.717L397.475 71.0391L399.549 51.6329H405.613L400.727 79.3712C400.551 80.3672 400.211 81.1172 399.707 81.6212C399.215 82.1368 398.4 82.3946 397.264 82.3946H390.162Z" fill="white"/>
<rect x="153" y="92.0001" width="370" height="6" fill="white"/>
<g filter="url(#filter8_d_1073_25)">
<rect x="94" y="543" width="479" height="39" stroke="url(#paint39_linear_1073_25)" stroke-width="2" shape-rendering="crispEdges"/>
</g>
<path d="M512.75 126.536L568.62 470.03H94.6315L150.501 126.536H512.745H512.75ZM514.644 124.302H148.602L92 472.265H571.246L514.644 124.302V124.302Z" fill="white"/>
<path d="M124.125 274.787C191.342 274.787 259.017 395.528 331.905 395.528C409.017 395.528 468.01 274.787 539.127 274.787" stroke="white" stroke-width="4" stroke-miterlimit="10"/>
<path d="M331.347 519L331.833 124.302" stroke="white" stroke-width="4" stroke-miterlimit="10"/>
<path d="M137.132 194.826C197.79 194.826 274.901 244.12 337.492 244.12C408.698 244.12 457.115 194.826 526.12 194.826" stroke="white" stroke-width="4" stroke-miterlimit="10"/>
<path d="M201.98 471.751C245.776 345.261 240.452 124 240.452 124" stroke="white" stroke-width="4" stroke-miterlimit="10"/>
<path d="M472.692 472.265C429.705 392.421 423.632 124 423.632 124" stroke="white" stroke-width="4" stroke-miterlimit="10"/>
<path d="M109.253 366.213C176.017 366.213 249.218 519 331.347 519C422.973 519 472.513 366.213 553.999 366.213" stroke="white" stroke-width="4" stroke-miterlimit="10"/>
<path d="M398.971 482.629C371.612 367.542 378.154 124.296 378.154 124.296" stroke="white" stroke-width="4" stroke-miterlimit="10"/>
<path d="M531.104 471.751C493.012 426.865 469.563 124.302 469.563 124.302" stroke="white" stroke-width="4" stroke-miterlimit="10"/>
<path d="M100.95 417.255C193.739 417.255 262.789 503.273 331.9 503.273C408.754 503.273 458.618 417.255 562.296 417.255" stroke="white" stroke-width="4" stroke-miterlimit="10"/>
<path d="M263.777 481.59C288.6 417.736 286.746 124.302 286.746 124.302" stroke="white" stroke-width="4" stroke-miterlimit="10"/>
<path d="M116.979 318.712C185.381 318.712 255.537 472.265 331.894 472.265C415.28 472.265 471.574 318.712 546.267 318.712" stroke="white" stroke-width="4" stroke-miterlimit="10"/>
<path d="M130.925 232.974C194.616 232.974 264.09 318.986 331.347 318.986C405.374 318.986 462.222 232.974 532.327 232.974" stroke="white" stroke-width="4" stroke-miterlimit="10"/>
<path d="M142.964 158.969C203.337 158.969 270.426 179.099 331.844 179.099C398.385 179.099 454.886 158.969 520.287 158.969" stroke="white" stroke-width="4" stroke-miterlimit="10"/>
<path d="M132.69 471.751C161.759 410.138 196.169 124.302 196.169 124.302" stroke="white" stroke-width="4" stroke-miterlimit="10"/>
<defs>
<filter id="filter0_d_1073_25" x="0" y="0" width="645" height="42" filterUnits="userSpaceOnUse" color-interpolation-filters="sRGB">
<feFlood flood-opacity="0" result="BackgroundImageFix"/>
<feColorMatrix in="SourceAlpha" type="matrix" values="0 0 0 0 0 0 0 0 0 0 0 0 0 0 0 0 0 0 127 0" result="hardAlpha"/>
<feOffset/>
<feGaussianBlur stdDeviation="10"/>
<feComposite in2="hardAlpha" operator="out"/>
<feColorMatrix type="matrix" values="0 0 0 0 0 0 0 0 0 1 0 0 0 0 1 0 0 0 1 0"/>
<feBlend mode="normal" in2="BackgroundImageFix" result="effect1_dropShadow_1073_25"/>
<feBlend mode="normal" in="SourceGraphic" in2="effect1_dropShadow_1073_25" result="shape"/>
</filter>
<filter id="filter1_d_1073_25" x="603" y="2" width="42" height="640" filterUnits="userSpaceOnUse" color-interpolation-filters="sRGB">
<feFlood flood-opacity="0" result="BackgroundImageFix"/>
<feColorMatrix in="SourceAlpha" type="matrix" values="0 0 0 0 0 0 0 0 0 0 0 0 0 0 0 0 0 0 127 0" result="hardAlpha"/>
<feOffset/>
<feGaussianBlur stdDeviation="10"/>
<feComposite in2="hardAlpha" operator="out"/>
<feColorMatrix type="matrix" values="0 0 0 0 0 0 0 0 0 1 0 0 0 0 1 0 0 0 1 0"/>
<feBlend mode="normal" in2="BackgroundImageFix" result="effect1_dropShadow_1073_25"/>
<feBlend mode="normal" in="SourceGraphic" in2="effect1_dropShadow_1073_25" result="shape"/>
</filter>
<filter id="filter2_d_1073_25" x="0" y="600" width="645" height="42" filterUnits="userSpaceOnUse" color-interpolation-filters="sRGB">
<feFlood flood-opacity="0" result="BackgroundImageFix"/>
<feColorMatrix in="SourceAlpha" type="matrix" values="0 0 0 0 0 0 0 0 0 0 0 0 0 0 0 0 0 0 127 0" result="hardAlpha"/>
<feOffset/>
<feGaussianBlur stdDeviation="10"/>
<feComposite in2="hardAlpha" operator="out"/>
<feColorMatrix type="matrix" values="0 0 0 0 0 0 0 0 0 1 0 0 0 0 1 0 0 0 1 0"/>
<feBlend mode="normal" in2="BackgroundImageFix" result="effect1_dropShadow_1073_25"/>
<feBlend mode="normal" in="SourceGraphic" in2="effect1_dropShadow_1073_25" result="shape"/>
</filter>
<filter id="filter3_d_1073_25" x="0" y="2" width="42" height="640" filterUnits="userSpaceOnUse" color-interpolation-filters="sRGB">
<feFlood flood-opacity="0" result="BackgroundImageFix"/>
<feColorMatrix in="SourceAlpha" type="matrix" values="0 0 0 0 0 0 0 0 0 0 0 0 0 0 0 0 0 0 127 0" result="hardAlpha"/>
<feOffset/>
<feGaussianBlur stdDeviation="10"/>
<feComposite in2="hardAlpha" operator="out"/>
<feColorMatrix type="matrix" values="0 0 0 0 0 0 0 0 0 1 0 0 0 0 1 0 0 0 1 0"/>
<feBlend mode="normal" in2="BackgroundImageFix" result="effect1_dropShadow_1073_25"/>
<feBlend mode="normal" in="SourceGraphic" in2="effect1_dropShadow_1073_25" result="shape"/>
</filter>
<filter id="filter4_d_1073_25" x="550.7" y="23.8" width="68.4" height="22" filterUnits="userSpaceOnUse" color-interpolation-filters="sRGB">
<feFlood flood-opacity="0" result="BackgroundImageFix"/>
<feColorMatrix in="SourceAlpha" type="matrix" values="0 0 0 0 0 0 0 0 0 0 0 0 0 0 0 0 0 0 127 0" result="hardAlpha"/>
<feOffset/>
<feGaussianBlur stdDeviation="5"/>
<feComposite in2="hardAlpha" operator="out"/>
<feColorMatrix type="matrix" values="0 0 0 0 1 0 0 0 0 0 0 0 0 0 0.9 0 0 0 1 0"/>
<feBlend mode="normal" in2="BackgroundImageFix" result="effect1_dropShadow_1073_25"/>
<feBlend mode="normal" in="SourceGraphic" in2="effect1_dropShadow_1073_25" result="shape"/>
</filter>
<filter id="filter5_d_1073_25" x="597.1" y="25.8" width="22" height="68.4" filterUnits="userSpaceOnUse" color-interpolation-filters="sRGB">
<feFlood flood-opacity="0" result="BackgroundImageFix"/>
<feColorMatrix in="SourceAlpha" type="matrix" values="0 0 0 0 0 0 0 0 0 0 0 0 0 0 0 0 0 0 127 0" result="hardAlpha"/>
<feOffset/>
<feGaussianBlur stdDeviation="5"/>
<feComposite in2="hardAlpha" operator="out"/>
<feColorMatrix type="matrix" values="0 0 0 0 1 0 0 0 0 0 0 0 0 0 0.9 0 0 0 1 0"/>
<feBlend mode="normal" in2="BackgroundImageFix" result="effect1_dropShadow_1073_25"/>
<feBlend mode="normal" in="SourceGraphic" in2="effect1_dropShadow_1073_25" result="shape"/>
</filter>
<filter id="filter6_d_1073_25" x="33.7" y="596.7" width="68.4" height="22" filterUnits="userSpaceOnUse" color-interpolation-filters="sRGB">
<feFlood flood-opacity="0" result="BackgroundImageFix"/>
<feColorMatrix in="SourceAlpha" type="matrix" values="0 0 0 0 0 0 0 0 0 0 0 0 0 0 0 0 0 0 127 0" result="hardAlpha"/>
<feOffset/>
<feGaussianBlur stdDeviation="5"/>
<feComposite in2="hardAlpha" operator="out"/>
<feColorMatrix type="matrix" values="0 0 0 0 1 0 0 0 0 0 0 0 0 0 0.9 0 0 0 1 0"/>
<feBlend mode="normal" in2="BackgroundImageFix" result="effect1_dropShadow_1073_25"/>
<feBlend mode="normal" in="SourceGraphic" in2="effect1_dropShadow_1073_25" result="shape"/>
</filter>
<filter id="filter7_d_1073_25" x="33.7" y="548.3" width="22" height="68.4" filterUnits="userSpaceOnUse" color-interpolation-filters="sRGB">
<feFlood flood-opacity="0" result="BackgroundImageFix"/>
<feColorMatrix in="SourceAlpha" type="matrix" values="0 0 0 0 0 0 0 0 0 0 0 0 0 0 0 0 0 0 127 0" result="hardAlpha"/>
<feOffset/>
<feGaussianBlur stdDeviation="5"/>
<feComposite in2="hardAlpha" operator="out"/>
<feColorMatrix type="matrix" values="0 0 0 0 1 0 0 0 0 0 0 0 0 0 0.9 0 0 0 1 0"/>
<feBlend mode="normal" in2="BackgroundImageFix" result="effect1_dropShadow_1073_25"/>
<feBlend mode="normal" in="SourceGraphic" in2="effect1_dropShadow_1073_25" result="shape"/>
</filter>
<filter id="filter8_d_1073_25" x="73" y="522" width="521" height="81" filterUnits="userSpaceOnUse" color-interpolation-filters="sRGB">
<feFlood flood-opacity="0" result="BackgroundImageFix"/>
<feColorMatrix in="SourceAlpha" type="matrix" values="0 0 0 0 0 0 0 0 0 0 0 0 0 0 0 0 0 0 127 0" result="hardAlpha"/>
<feOffset/>
<feGaussianBlur stdDeviation="10"/>
<feComposite in2="hardAlpha" operator="out"/>
<feColorMatrix type="matrix" values="0 0 0 0 0 0 0 0 0 1 0 0 0 0 1 0 0 0 1 0"/>
<feBlend mode="normal" in2="BackgroundImageFix" result="effect1_dropShadow_1073_25"/>
<feBlend mode="normal" in="SourceGraphic" in2="effect1_dropShadow_1073_25" result="shape"/>
</filter>
<linearGradient id="paint0_linear_1073_25" x1="19.9971" y1="621.999" x2="625.003" y2="22.0034" gradientUnits="userSpaceOnUse">
<stop stop-color="#00FFFF"/>
<stop offset="1" stop-color="#00FF19"/>
</linearGradient>
<linearGradient id="paint1_linear_1073_25" x1="21.4952" y1="621.997" x2="624.994" y2="21.9934" gradientUnits="userSpaceOnUse">
<stop stop-color="#00FF19"/>
<stop stop-color="#00FFFF"/>
<stop offset="1" stop-color="#00FF19"/>
</linearGradient>
<linearGradient id="paint2_linear_1073_25" x1="20" y1="622" x2="625" y2="22" gradientUnits="userSpaceOnUse">
<stop stop-color="#00FFFF"/>
<stop offset="1" stop-color="#00FF19"/>
</linearGradient>
<linearGradient id="paint3_linear_1073_25" x1="19.9994" y1="621.999" x2="624.999" y2="21.9992" gradientUnits="userSpaceOnUse">
<stop stop-color="#00FFFF"/>
<stop offset="1" stop-color="#00FF19"/>
</linearGradient>
<linearGradient id="paint4_linear_1073_25" x1="108" y1="551" x2="108" y2="575" gradientUnits="userSpaceOnUse">
<stop stop-color="#00FF19"/>
<stop offset="0.255208" stop-color="#00FFFF"/>
<stop offset="1" stop-color="#00FFFF"/>
</linearGradient>
<linearGradient id="paint5_linear_1073_25" x1="123" y1="551" x2="123" y2="575" gradientUnits="userSpaceOnUse">
<stop stop-color="#00FF19"/>
<stop offset="0.255208" stop-color="#00FFFF"/>
<stop offset="1" stop-color="#00FFFF"/>
</linearGradient>
<linearGradient id="paint6_linear_1073_25" x1="138" y1="551" x2="138" y2="575" gradientUnits="userSpaceOnUse">
<stop stop-color="#00FF19"/>
<stop offset="0.255208" stop-color="#00FFFF"/>
<stop offset="1" stop-color="#00FFFF"/>
</linearGradient>
<linearGradient id="paint7_linear_1073_25" x1="153" y1="551" x2="153" y2="575" gradientUnits="userSpaceOnUse">
<stop stop-color="#00FF19"/>
<stop offset="0.255208" stop-color="#00FFFF"/>
<stop offset="1" stop-color="#00FFFF"/>
</linearGradient>
<linearGradient id="paint8_linear_1073_25" x1="168" y1="551" x2="168" y2="575" gradientUnits="userSpaceOnUse">
<stop stop-color="#00FF19"/>
<stop offset="0.255208" stop-color="#00FFFF"/>
<stop offset="1" stop-color="#00FFFF"/>
</linearGradient>
<linearGradient id="paint9_linear_1073_25" x1="183" y1="551" x2="183" y2="575" gradientUnits="userSpaceOnUse">
<stop stop-color="#00FF19"/>
<stop offset="0.255208" stop-color="#00FFFF"/>
<stop offset="1" stop-color="#00FFFF"/>
</linearGradient>
<linearGradient id="paint10_linear_1073_25" x1="198" y1="551" x2="198" y2="575" gradientUnits="userSpaceOnUse">
<stop stop-color="#00FF19"/>
<stop offset="0.255208" stop-color="#00FFFF"/>
<stop offset="1" stop-color="#00FFFF"/>
</linearGradient>
<linearGradient id="paint11_linear_1073_25" x1="213" y1="551" x2="213" y2="575" gradientUnits="userSpaceOnUse">
<stop stop-color="#00FF19"/>
<stop offset="0.255208" stop-color="#00FFFF"/>
<stop offset="1" stop-color="#00FFFF"/>
</linearGradient>
<linearGradient id="paint12_linear_1073_25" x1="228" y1="551" x2="228" y2="575" gradientUnits="userSpaceOnUse">
<stop stop-color="#00FF19"/>
<stop offset="0.255208" stop-color="#00FFFF"/>
<stop offset="1" stop-color="#00FFFF"/>
</linearGradient>
<linearGradient id="paint13_linear_1073_25" x1="243" y1="551" x2="243" y2="575" gradientUnits="userSpaceOnUse">
<stop stop-color="#00FF19"/>
<stop offset="0.255208" stop-color="#00FFFF"/>
<stop offset="1" stop-color="#00FFFF"/>
</linearGradient>
<linearGradient id="paint14_linear_1073_25" x1="258" y1="551" x2="258" y2="575" gradientUnits="userSpaceOnUse">
<stop stop-color="#00FF19"/>
<stop offset="0.255208" stop-color="#00FFFF"/>
<stop offset="1" stop-color="#00FFFF"/>
</linearGradient>
<linearGradient id="paint15_linear_1073_25" x1="273" y1="551" x2="273" y2="575" gradientUnits="userSpaceOnUse">
<stop stop-color="#00FF19"/>
<stop offset="0.255208" stop-color="#00FFFF"/>
<stop offset="1" stop-color="#00FFFF"/>
</linearGradient>
<linearGradient id="paint16_linear_1073_25" x1="288" y1="551" x2="288" y2="575" gradientUnits="userSpaceOnUse">
<stop stop-color="#00FF19"/>
<stop offset="0.255208" stop-color="#00FFFF"/>
<stop offset="1" stop-color="#00FFFF"/>
</linearGradient>
<linearGradient id="paint17_linear_1073_25" x1="303" y1="551" x2="303" y2="575" gradientUnits="userSpaceOnUse">
<stop stop-color="#00FF19"/>
<stop offset="0.255208" stop-color="#00FFFF"/>
<stop offset="1" stop-color="#00FFFF"/>
</linearGradient>
<linearGradient id="paint18_linear_1073_25" x1="318" y1="551" x2="318" y2="575" gradientUnits="userSpaceOnUse">
<stop stop-color="#00FF19"/>
<stop offset="0.255208" stop-color="#00FFFF"/>
<stop offset="1" stop-color="#00FFFF"/>
</linearGradient>
<linearGradient id="paint19_linear_1073_25" x1="333" y1="551" x2="333" y2="575" gradientUnits="userSpaceOnUse">
<stop stop-color="#00FF19"/>
<stop offset="0.255208" stop-color="#00FFFF"/>
<stop offset="1" stop-color="#00FFFF"/>
</linearGradient>
<linearGradient id="paint20_linear_1073_25" x1="348" y1="551" x2="348" y2="575" gradientUnits="userSpaceOnUse">
<stop stop-color="#00FF19"/>
<stop offset="0.255208" stop-color="#00FFFF"/>
<stop offset="1" stop-color="#00FFFF"/>
</linearGradient>
<linearGradient id="paint21_linear_1073_25" x1="363" y1="551" x2="363" y2="575" gradientUnits="userSpaceOnUse">
<stop stop-color="#00FF19"/>
<stop offset="0.255208" stop-color="#00FFFF"/>
<stop offset="1" stop-color="#00FFFF"/>
</linearGradient>
<linearGradient id="paint22_linear_1073_25" x1="378" y1="551" x2="378" y2="575" gradientUnits="userSpaceOnUse">
<stop stop-color="#00FF19"/>
<stop offset="0.255208" stop-color="#00FFFF"/>
<stop offset="1" stop-color="#00FFFF"/>
</linearGradient>
<linearGradient id="paint23_linear_1073_25" x1="393" y1="551" x2="393" y2="575" gradientUnits="userSpaceOnUse">
<stop stop-color="#00FF19"/>
<stop offset="0.255208" stop-color="#00FFFF"/>
<stop offset="1" stop-color="#00FFFF"/>
</linearGradient>
<linearGradient id="paint24_linear_1073_25" x1="408" y1="551" x2="408" y2="575" gradientUnits="userSpaceOnUse">
<stop stop-color="#00FF19"/>
<stop offset="0.255208" stop-color="#00FFFF"/>
<stop offset="1" stop-color="#00FFFF"/>
</linearGradient>
<linearGradient id="paint25_linear_1073_25" x1="423" y1="551" x2="423" y2="575" gradientUnits="userSpaceOnUse">
<stop stop-color="#00FF19"/>
<stop offset="0.255208" stop-color="#00FFFF"/>
<stop offset="1" stop-color="#00FFFF"/>
</linearGradient>
<linearGradient id="paint26_linear_1073_25" x1="438" y1="551" x2="438" y2="575" gradientUnits="userSpaceOnUse">
<stop stop-color="#00FF19"/>
<stop offset="0.255208" stop-color="#00FFFF"/>
<stop offset="1" stop-color="#00FFFF"/>
</linearGradient>
<linearGradient id="paint27_linear_1073_25" x1="453" y1="551" x2="453" y2="575" gradientUnits="userSpaceOnUse">
<stop stop-color="#00FF19"/>
<stop offset="0.255208" stop-color="#00FFFF"/>
<stop offset="1" stop-color="#00FFFF"/>
</linearGradient>
<linearGradient id="paint28_linear_1073_25" x1="468" y1="551" x2="468" y2="575" gradientUnits="userSpaceOnUse">
<stop stop-color="#00FF19"/>
<stop offset="0.255208" stop-color="#00FFFF"/>
<stop offset="1" stop-color="#00FFFF"/>
</linearGradient>
<linearGradient id="paint29_linear_1073_25" x1="483" y1="551" x2="483" y2="575" gradientUnits="userSpaceOnUse">
<stop stop-color="#00FF19"/>
<stop offset="0.255208" stop-color="#00FFFF"/>
<stop offset="1" stop-color="#00FFFF"/>
</linearGradient>
<linearGradient id="paint30_linear_1073_25" x1="498" y1="551" x2="498" y2="575" gradientUnits="userSpaceOnUse">
<stop stop-color="#00FF19"/>
<stop offset="0.255208" stop-color="#00FFFF"/>
<stop offset="1" stop-color="#00FFFF"/>
</linearGradient>
<linearGradient id="paint31_linear_1073_25" x1="513" y1="551" x2="513" y2="575" gradientUnits="userSpaceOnUse">
<stop stop-color="#00FF19"/>
<stop offset="0.255208" stop-color="#00FFFF"/>
<stop offset="1" stop-color="#00FFFF"/>
</linearGradient>
<linearGradient id="paint32_linear_1073_25" x1="528" y1="551" x2="528" y2="575" gradientUnits="userSpaceOnUse">
<stop stop-color="#00FF19"/>
<stop offset="0.255208" stop-color="#00FFFF"/>
<stop offset="1" stop-color="#00FFFF"/>
</linearGradient>
<linearGradient id="paint33_linear_1073_25" x1="543" y1="551" x2="543" y2="575" gradientUnits="userSpaceOnUse">
<stop stop-color="#00FF19"/>
<stop offset="0.255208" stop-color="#00FFFF"/>
<stop offset="1" stop-color="#00FFFF"/>
</linearGradient>
<linearGradient id="paint34_linear_1073_25" x1="558" y1="551" x2="558" y2="575" gradientUnits="userSpaceOnUse">
<stop stop-color="#00FF19"/>
<stop offset="0.255208" stop-color="#00FFFF"/>
<stop offset="1" stop-color="#00FFFF"/>
</linearGradient>
<linearGradient id="paint35_linear_1073_25" x1="609" y1="36.0001" x2="551.5" y2="36.0001" gradientUnits="userSpaceOnUse">
<stop stop-color="#FF00E5"/>
<stop offset="1" stop-color="#FF00E5" stop-opacity="0.26"/>
</linearGradient>
<linearGradient id="paint36_linear_1073_25" x1="577.5" y1="28.5001" x2="609" y2="89.0001" gradientUnits="userSpaceOnUse">
<stop stop-color="#FF00E5"/>
<stop offset="1" stop-color="#FF00E5" stop-opacity="0.26"/>
</linearGradient>
<linearGradient id="paint37_linear_1073_25" x1="44" y1="607" x2="92" y2="607" gradientUnits="userSpaceOnUse">
<stop stop-color="#FF00E5"/>
<stop offset="1" stop-color="#FF00E5" stop-opacity="0.26"/>
</linearGradient>
<linearGradient id="paint38_linear_1073_25" x1="44" y1="607" x2="44" y2="558" gradientUnits="userSpaceOnUse">
<stop stop-color="#FF00E5"/>
<stop offset="1" stop-color="#FF00E5" stop-opacity="0.26"/>
</linearGradient>
<linearGradient id="paint39_linear_1073_25" x1="333.5" y1="542" x2="333.5" y2="583" gradientUnits="userSpaceOnUse">
<stop stop-color="#00FF19"/>
<stop offset="0.255208" stop-color="#00FFFF"/>
<stop offset="1" stop-color="#00FFFF"/>
</linearGradient>
</defs>
</svg>
